<?xml version="1.0" standalone="no"?>
<!DOCTYPE svg PUBLIC "-//W3C//DTD SVG 20010904//EN"
 "http://www.w3.org/TR/2001/REC-SVG-20010904/DTD/svg10.dtd">
<svg version="1.0" xmlns="http://www.w3.org/2000/svg"
 width="100.000000pt" height="100.000000pt" viewBox="0 0 100.000000 100.000000"
 preserveAspectRatio="xMidYMid meet">
<metadata>
Created by potrace 1.14, written by Peter Selinger 2001-2017
</metadata>
<g transform="translate(0.000000,100.000000) scale(0.100000,-0.100000)"
fill="#000000" stroke="none">
<path d="M120 892 c-14 -2 -15 -41 -15 -294 0 -224 3 -292 13 -296 6 -2 12 -9
12 -15 0 -7 18 -32 40 -57 57 -65 60 -69 60 -75 0 -3 10 -15 22 -27 23 -23 25
-23 330 -23 204 0 308 3 309 10 1 5 2 145 3 310 2 298 1 300 -21 323 -12 12
-25 22 -28 22 -3 0 -17 11 -31 25 -14 14 -31 22 -37 19 -7 -4 -9 -4 -5 1 7 8
-15 35 -29 35 -5 0 -15 9 -23 19 -7 11 -17 18 -22 15 -4 -3 -8 -1 -8 3 0 8
-534 13 -570 5z"/>
</g>
</svg>
